<svg width="132" height="132" viewBox="0 0 132 132" fill="none" xmlns="http://www.w3.org/2000/svg">
    <path d="M27.8715 43.697C26.181 42.721 24.0065 43.2955 23.1578 45.0533C19.0803 53.4996 17.5631 62.9848 18.8379 72.3291C20.2724 82.8441 25.1612 92.5841 32.7353 100.017C40.3095 107.451 50.1395 112.156 60.6796 113.393C71.2197 114.63 81.872 112.329 90.9615 106.851C100.051 101.373 107.062 93.0299 110.892 83.1328C114.722 73.2356 115.154 62.3461 112.12 52.1767C109.086 42.0072 102.758 33.1346 94.1312 26.954C86.4648 21.4616 77.3694 18.372 67.9966 18.0315C66.0459 17.9607 64.5221 19.615 64.5954 21.5656C64.6686 23.5163 66.3117 25.0222 68.2614 25.118C76.0653 25.5016 83.6226 28.1212 90.0143 32.7004C97.3671 37.9681 102.76 45.5302 105.346 54.1977C107.932 62.8651 107.564 72.1462 104.3 80.5815C101.035 89.0169 95.0598 96.128 87.3128 100.797C79.5659 105.465 70.4869 107.427 61.5036 106.372C52.5203 105.318 44.1422 101.308 37.6867 94.9724C31.2312 88.6369 27.0645 80.3355 25.8419 71.3735C24.779 63.5829 25.9933 55.6772 29.2998 48.5979C30.1259 46.8293 29.562 44.673 27.8715 43.697Z" fill="url(#paint0_linear)"/>
    <defs>
        <linearGradient id="paint0_linear" x1="65.005" y1="25.3392" x2="-8.45663" y2="43.9337" gradientUnits="userSpaceOnUse">
            <stop stop-color="#5379C1"/>
            <stop offset="1" stop-color="white"/>
        </linearGradient>
    </defs>
</svg>

