<svg width="20" height="20" viewBox="-269 396.1 56 50.3" xmlns="http://www.w3.org/2000/svg">
<g fill="purple">
<path d="M-246.6,439l-9-24.4c-0.1-0.4-0.5-0.6-0.9-0.6h-9.3c-0.8,0-1.3,0.9-0.8,1.6l19.5,23.7 C-246.9,439.5-246.5,439.3-246.6,439z"></path>
<path d="M-240.8,443.5l9.9-28.2c0.2-0.6-0.2-1.3-0.9-1.3h-18.5c-0.7,0-1.1,0.7-0.9,1.3l9.7,28.2 C-241.4,443.9-240.9,443.9-240.8,443.5z"></path>
<path d="M-216.1,414h-9.5c-0.4,0-0.8,0.3-0.9,0.6l-9.3,24.5c-0.2,0.4,0.4,0.7,0.7,0.4l19.7-24 C-214.9,414.9-215.3,414-216.1,414z"></path>
<path d="M-236.6,399.6l7.2,9.1c0.5,0.6,1.4,0.4,1.7-0.3l2.8-9.1c0.2-0.6-0.2-1.3-0.9-1.3h-10 C-236.7,398-237.1,398.9-236.6,399.6z"></path>
<path d="M-241.8,400.5l-6.9,8.9c-0.5,0.6-0.1,1.6,0.8,1.6h13.7c0.8,0,1.3-0.9,0.8-1.6l-6.9-8.9 C-240.6,400-241.4,400-241.8,400.5z"></path>
<path d="M-257.1,399.3l2.7,10.2c0.3,0.7,1.2,0.9,1.7,0.3l7.3-10.2c0.5-0.6,0.1-1.6-0.8-1.6h-10 C-256.9,398-257.3,398.7-257.1,399.3z"></path>
<path d="M-266.4,411h8.5c0.7,0,1.1-0.7,0.9-1.3l-2.5-7.6c-0.3-0.8-1.3-0.9-1.7-0.2l-6,7.6 C-267.7,410.2-267.2,411-266.4,411z"></path>
<path d="M-222.5,401.1l-2.6,8.6c-0.2,0.6,0.2,1.3,0.9,1.3h8.6c0.8,0,1.2-0.8,0.8-1.5l-6-8.6 C-221.2,400.2-222.2,400.3-222.5,401.1z"></path>
</g>
</svg>