<svg width="30" height="69" viewBox="0 0 30 69" fill="none" xmlns="http://www.w3.org/2000/svg">
<path d="M28.2087 39.5095V18.0833H2.79199V39.5095C2.79199 40.3991 3.24949 41.2378 4.03741 41.6953L14.6616 48.0749L12.1453 54.0224L3.47824 54.7595L10.0612 60.4528L8.05324 68.9166L15.5003 64.4178L22.9474 68.9166L20.9649 60.4528L27.5478 54.7595L18.8807 54.0224L16.3645 48.0749L26.9887 41.6953C27.7512 41.2378 28.2087 40.4245 28.2087 39.5095ZM18.042 44.0845L15.5003 45.6095L12.9587 44.0845V20.6249H18.042V44.0845Z" fill="#CDCF6F"/>
<path d="M5.6432 12.31V13H0.683203V12.31H3.9332V11.15C3.9332 10.1633 3.73987 9.47333 3.3532 9.08C2.9732 8.68 2.52654 8.48 2.0132 8.48H1.2032L1.1532 7.91C1.21987 7.88333 1.3532 7.85667 1.5532 7.83C1.75987 7.80333 1.95654 7.79 2.1432 7.79C2.86987 7.79 3.47654 8.05333 3.9632 8.58C4.45654 9.1 4.7032 9.95 4.7032 11.13V12.31H5.6432ZM13.6345 12.31V13H5.64453V12.31H6.79453V11.51C6.79453 11.1833 6.87453 10.8833 7.03453 10.61C7.2012 10.33 7.4212 10.11 7.69453 9.95C7.97453 9.78333 8.27786 9.7 8.60453 9.7C8.92453 9.7 9.2212 9.78 9.49453 9.94C9.77453 10.0933 9.99453 10.31 10.1545 10.59C10.3212 10.8633 10.4045 11.17 10.4045 11.51V12.31H11.8745V10.93C11.8745 9.94333 11.6245 9.25333 11.1245 8.86C10.6312 8.46 10.0045 8.26 9.24453 8.26C8.9512 8.26 8.63786 8.28333 8.30453 8.33C7.97786 8.37 7.58453 8.43 7.12453 8.51L7.07453 7.92C7.9412 7.68667 8.7112 7.57 9.38453 7.57C10.3245 7.57 11.1012 7.83 11.7145 8.35C12.3345 8.87 12.6445 9.72333 12.6445 10.91V12.31H13.6345ZM8.60453 10.39C8.3112 10.39 8.06453 10.49 7.86453 10.69C7.66453 10.89 7.56453 11.1333 7.56453 11.42V12.31H9.63453V11.42C9.63453 11.1333 9.53453 10.89 9.33453 10.69C9.1412 10.49 8.89786 10.39 8.60453 10.39ZM17.3828 12.31V13H13.6328V12.31H15.1228V8H15.8928V12.31H17.3828ZM14.5028 6.23H15.2628V7.07H14.5028V6.23ZM15.7528 6.23H16.5128V7.07H15.7528V6.23ZM23.3028 12.31V13H17.3828V12.31H21.3928V9.6C21.3928 9.26667 21.3061 9.01667 21.1328 8.85C20.9595 8.67667 20.6995 8.59 20.3528 8.59C20.0528 8.59 19.4595 8.64333 18.5728 8.75L18.2928 8.78L18.2628 8.21C19.2695 8.00333 20.0228 7.9 20.5228 7.9C21.6161 7.9 22.1628 8.47 22.1628 9.61V12.31H23.3028ZM19.9628 13.8H20.7228V14.64H19.9628V13.8ZM26.7408 7.9C27.5541 7.9 28.1541 8.1 28.5408 8.5C28.9274 8.9 29.1208 9.56667 29.1208 10.5V13H23.3008V12.31H24.9508C24.8574 11.7367 24.8108 11.1533 24.8108 10.56C24.8108 10.1133 24.8374 9.67333 24.8908 9.24C24.9441 8.8 25.0041 8.44333 25.0708 8.17C25.2308 8.10333 25.4641 8.04333 25.7708 7.99C26.0774 7.93 26.4008 7.9 26.7408 7.9ZM25.5808 10.56C25.5808 10.8867 25.5941 11.2133 25.6208 11.54C25.6541 11.86 25.6874 12.1167 25.7208 12.31H28.3508V10.49C28.3508 9.81 28.2074 9.32333 27.9208 9.03C27.6341 8.73667 27.1974 8.59 26.6108 8.59C26.2841 8.59 25.9941 8.62333 25.7408 8.69C25.6341 9.27 25.5808 9.89333 25.5808 10.56Z" fill="#CDCF6F"/>
</svg>
