<svg width="27" height="69" viewBox="0 0 27 69" fill="none" xmlns="http://www.w3.org/2000/svg">
<path d="M26.2087 39.5095V18.0833H0.791992V39.5095C0.791992 40.3991 1.24949 41.2378 2.03741 41.6953L12.6616 48.0749L10.1453 54.0224L1.47824 54.7595L8.06116 60.4528L6.05324 68.9166L13.5003 64.4178L20.9474 68.9166L18.9649 60.4528L25.5478 54.7595L16.8807 54.0224L14.3645 48.0749L24.9887 41.6953C25.7512 41.2378 26.2087 40.4245 26.2087 39.5095ZM16.042 44.0845L13.5003 45.6095L10.9587 44.0845V20.6249H16.042V44.0845Z" fill="#9B51E0"/>
<path d="M7.20797 13H5.95797V13.11C5.95797 14.6967 5.40797 15.49 4.30797 15.49C4.2013 15.49 4.1013 15.4867 4.00797 15.48C3.9213 15.4733 3.84464 15.4667 3.77797 15.46L3.56797 15.44V14.76C3.9013 14.7867 4.1113 14.8 4.19797 14.8C4.5313 14.8 4.77797 14.6667 4.93797 14.4C5.10464 14.14 5.18797 13.7733 5.18797 13.3V8.01H5.95797V12.31H7.20797V13ZM10.9509 7.57C11.8909 7.57 12.6676 7.83 13.2809 8.35C13.9009 8.87 14.2109 9.72333 14.2109 10.91V13H7.21094V12.31H8.36094V11.51C8.36094 11.1833 8.44094 10.8833 8.60094 10.61C8.7676 10.33 8.9876 10.11 9.26094 9.95C9.54094 9.78333 9.84427 9.7 10.1709 9.7C10.4909 9.7 10.7876 9.78 11.0609 9.94C11.3409 10.0933 11.5609 10.31 11.7209 10.59C11.8876 10.8633 11.9709 11.17 11.9709 11.51V12.31H13.4409V10.93C13.4409 9.94333 13.1909 9.25333 12.6909 8.86C12.1976 8.46 11.5709 8.26 10.8109 8.26C10.5176 8.26 10.2043 8.28333 9.87094 8.33C9.54427 8.37 9.15094 8.43 8.69094 8.51L8.64094 7.92C9.5076 7.68667 10.2776 7.57 10.9509 7.57ZM10.1709 10.39C9.8776 10.39 9.63094 10.49 9.43094 10.69C9.23094 10.89 9.13094 11.1333 9.13094 11.42V12.31H11.2009V11.42C11.2009 11.1333 11.1009 10.89 10.9009 10.69C10.7076 10.49 10.4643 10.39 10.1709 10.39ZM17.4186 12.31V13H15.7086V5.82H16.4786V12.31H17.4186ZM20.856 7.9C21.6693 7.9 22.2693 8.1 22.656 8.5C23.0427 8.9 23.236 9.56667 23.236 10.5V13H17.416V12.31H19.066C18.9727 11.7367 18.926 11.1533 18.926 10.56C18.926 10.1133 18.9527 9.67333 19.006 9.24C19.0593 8.8 19.1193 8.44333 19.186 8.17C19.346 8.10333 19.5793 8.04333 19.886 7.99C20.1927 7.93 20.516 7.9 20.856 7.9ZM19.696 10.56C19.696 10.8867 19.7093 11.2133 19.736 11.54C19.7693 11.86 19.8027 12.1167 19.836 12.31H22.466V10.49C22.466 9.81 22.3227 9.32333 22.036 9.03C21.7493 8.73667 21.3127 8.59 20.726 8.59C20.3993 8.59 20.1093 8.62333 19.856 8.69C19.7493 9.27 19.696 9.89333 19.696 10.56Z" fill="#9B51E0"/>
</svg>
