<svg width="30" height="69" viewBox="0 0 30 69" fill="none" xmlns="http://www.w3.org/2000/svg">
<path d="M28.2087 39.5095V18.0833H2.79199V39.5095C2.79199 40.3991 3.24949 41.2378 4.03741 41.6953L14.6616 48.0749L12.1453 54.0224L3.47824 54.7595L10.0612 60.4528L8.05324 68.9166L15.5003 64.4178L22.9474 68.9166L20.9649 60.4528L27.5478 54.7595L18.8807 54.0224L16.3645 48.0749L26.9887 41.6953C27.7512 41.2378 28.2087 40.4245 28.2087 39.5095ZM18.042 44.0845L15.5003 45.6095L12.9587 44.0845V20.6249H18.042V44.0845Z" fill="#56CCF2"/>
<path d="M7.8 12.31V13H0.24V12.31H0.78V5.82H1.55V9.6C1.85 9.22667 2.12 8.92333 2.36 8.69C2.60667 8.45667 2.89333 8.26667 3.22 8.12C3.54667 7.97333 3.92333 7.9 4.35 7.9C5.19 7.9 5.78333 8.16 6.13 8.68C6.48333 9.19333 6.66 9.79667 6.66 10.49V12.31H7.8ZM4.27 8.59C3.85667 8.59 3.47333 8.70333 3.12 8.93C2.76667 9.15667 2.48 9.4 2.26 9.66C2.04 9.91333 1.80333 10.2167 1.55 10.57V12.31H5.89V10.6C5.89 10.0267 5.75 9.55 5.47 9.17C5.19667 8.78333 4.79667 8.59 4.27 8.59ZM11.5527 12.31V13H7.80273V12.31H9.29273V8H10.0627V12.31H11.5527ZM9.29273 13.8H10.0527V14.64H9.29273V13.8ZM19.8327 12.31V13H11.5527V12.31H13.0127V8H13.7827V9.6C14.0827 9.22667 14.3527 8.92333 14.5927 8.69C14.8394 8.45667 15.1261 8.26667 15.4527 8.12C15.7794 7.97333 16.1561 7.9 16.5827 7.9C17.4227 7.9 18.0161 8.16 18.3627 8.68C18.7161 9.19333 18.8927 9.79667 18.8927 10.49V12.31H19.8327ZM16.5027 8.59C16.0894 8.59 15.7061 8.70333 15.3527 8.93C14.9994 9.15667 14.7127 9.4 14.4927 9.66C14.2727 9.91333 14.0361 10.2167 13.7827 10.57V12.31H18.1227V10.6C18.1227 10.0267 17.9827 9.55 17.7027 9.17C17.4294 8.78333 17.0294 8.59 16.5027 8.59ZM15.6027 6.23H16.3627V7.07H15.6027V6.23ZM23.584 12.31V13H19.834V12.31H21.324V8H22.094V12.31H23.584ZM21.324 6.23H22.084V7.07H21.324V6.23ZM27.024 7.9C27.8373 7.9 28.4373 8.1 28.824 8.5C29.2107 8.9 29.404 9.56667 29.404 10.5V13H23.584V12.31H25.234C25.1407 11.7367 25.094 11.1533 25.094 10.56C25.094 10.1133 25.1207 9.67333 25.174 9.24C25.2273 8.8 25.2873 8.44333 25.354 8.17C25.514 8.10333 25.7473 8.04333 26.054 7.99C26.3607 7.93 26.684 7.9 27.024 7.9ZM25.864 10.56C25.864 10.8867 25.8773 11.2133 25.904 11.54C25.9373 11.86 25.9707 12.1167 26.004 12.31H28.634V10.49C28.634 9.81 28.4907 9.32333 28.204 9.03C27.9173 8.73667 27.4807 8.59 26.894 8.59C26.5673 8.59 26.2773 8.62333 26.024 8.69C25.9173 9.27 25.864 9.89333 25.864 10.56Z" fill="#56CCF2"/>
</svg>
