<svg width="27" height="69" viewBox="0 0 27 69" fill="none" xmlns="http://www.w3.org/2000/svg">
<path d="M26.2087 39.5095V18.0833H0.791992V39.5095C0.791992 40.3991 1.24949 41.2378 2.03741 41.6953L12.6616 48.0749L10.1453 54.0224L1.47824 54.7595L8.06116 60.4528L6.05324 68.9166L13.5003 64.4178L20.9474 68.9166L18.9649 60.4528L25.5478 54.7595L16.8807 54.0224L14.3645 48.0749L24.9887 41.6953C25.7512 41.2378 26.2087 40.4245 26.2087 39.5095ZM16.042 44.0845L13.5003 45.6095L10.9587 44.0845V20.6249H16.042V44.0845Z" fill="#F2C94C"/>
<path d="M8.73004 13H7.59004V13.4C7.59004 13.8467 7.47337 14.2267 7.24004 14.54C7.01337 14.8533 6.70671 15.0867 6.32004 15.24C5.94004 15.4 5.52337 15.48 5.07004 15.48C4.58337 15.48 4.14004 15.39 3.74004 15.21C3.34004 15.03 3.02337 14.78 2.79004 14.46C2.55671 14.14 2.44004 13.7733 2.44004 13.36C2.44004 13.1067 2.48004 12.68 2.56004 12.08C2.64004 11.48 2.73337 10.8767 2.84004 10.27L3.58004 10.31C3.48004 10.9633 3.39337 11.58 3.32004 12.16C3.24671 12.7333 3.21004 13.1167 3.21004 13.31C3.21004 13.5967 3.29004 13.8533 3.45004 14.08C3.61671 14.3067 3.84004 14.48 4.12004 14.6C4.40004 14.7267 4.71004 14.79 5.05004 14.79C5.54337 14.79 5.96004 14.66 6.30004 14.4C6.64671 14.1467 6.82004 13.7833 6.82004 13.31V8H7.59004V12.31H8.73004V13ZM4.71004 7.16H5.47004V8H4.71004V7.16ZM14.7895 12.31V13H8.72949V12.31H10.1495C9.96949 11.9567 9.87949 11.3933 9.87949 10.62C9.87949 9.93333 9.94949 9.40333 10.0895 9.03C10.2362 8.65667 10.4762 8.39333 10.8095 8.24C11.1495 8.08667 11.6295 8.01 12.2495 8.01C12.7562 8.01 13.2162 8.03333 13.6295 8.08L13.9095 8.11V12.31H14.7895ZM10.6395 10.6C10.6395 11.4467 10.7628 12.0167 11.0095 12.31H13.1395V8.72C12.6862 8.68667 12.3662 8.67 12.1795 8.67C11.7595 8.67 11.4395 8.73333 11.2195 8.86C10.9995 8.98667 10.8462 9.18667 10.7595 9.46C10.6795 9.73333 10.6395 10.1133 10.6395 10.6ZM10.8795 6.23H11.6395V7.07H10.8795V6.23ZM12.1295 6.23H12.8895V7.07H12.1295V6.23ZM18.5439 12.31V13H14.7939V12.31H16.2839V8H17.0539V12.31H18.5439ZM15.6639 6.23H16.4239V7.07H15.6639V6.23ZM16.9139 6.23H17.6739V7.07H16.9139V6.23ZM21.9839 7.9C22.7973 7.9 23.3973 8.1 23.7839 8.5C24.1706 8.9 24.3639 9.56667 24.3639 10.5V13H18.5439V12.31H20.1939C20.1006 11.7367 20.0539 11.1533 20.0539 10.56C20.0539 10.1133 20.0806 9.67333 20.1339 9.24C20.1873 8.8 20.2473 8.44333 20.3139 8.17C20.4739 8.10333 20.7073 8.04333 21.0139 7.99C21.3206 7.93 21.6439 7.9 21.9839 7.9ZM20.8239 10.56C20.8239 10.8867 20.8373 11.2133 20.8639 11.54C20.8973 11.86 20.9306 12.1167 20.9639 12.31H23.5939V10.49C23.5939 9.81 23.4506 9.32333 23.1639 9.03C22.8773 8.73667 22.4406 8.59 21.8539 8.59C21.5273 8.59 21.2373 8.62333 20.9839 8.69C20.8773 9.27 20.8239 9.89333 20.8239 10.56Z" fill="#F2C94C"/>
</svg>
