<svg width="27" height="69" viewBox="0 0 27 69" fill="none" xmlns="http://www.w3.org/2000/svg">
<path d="M26.2087 39.5095V18.0833H0.791992V39.5095C0.791992 40.3991 1.24949 41.2378 2.03741 41.6953L12.6616 48.0749L10.1453 54.0224L1.47824 54.7595L8.06116 60.4528L6.05324 68.9166L13.5003 64.4178L20.9474 68.9166L18.9649 60.4528L25.5478 54.7595L16.8807 54.0224L14.3645 48.0749L24.9887 41.6953C25.7512 41.2378 26.2087 40.4245 26.2087 39.5095ZM16.042 44.0845L13.5003 45.6095L10.9587 44.0845V20.6249H16.042V44.0845Z" fill="#219653"/>
<path d="M7.10348 13H5.85348V13.11C5.85348 14.6967 5.30348 15.49 4.20348 15.49C4.09681 15.49 3.99681 15.4867 3.90348 15.48C3.81681 15.4733 3.74014 15.4667 3.67348 15.46L3.46348 15.44V14.76C3.79681 14.7867 4.00681 14.8 4.09348 14.8C4.42681 14.8 4.67348 14.6667 4.83348 14.4C5.00014 14.14 5.08348 13.7733 5.08348 13.3V8.01H5.85348V12.31H7.10348V13ZM9.36645 8V13H7.10645V12.31H8.59645V8H9.36645ZM8.59645 13.8H9.35645V14.64H8.59645V13.8ZM12.7731 12.31V13H11.0631V5.82H11.8331V12.31H12.7731ZM16.5205 12.31V13H12.7705V12.31H14.2605V8H15.0305V12.31H16.5205ZM14.2605 5.01H15.0105V5.82H14.2605V5.01ZM13.6305 6.23H14.3905V7.07H13.6305V6.23ZM14.8805 6.23H15.6405V7.07H14.8805V6.23ZM19.9605 7.9C20.7738 7.9 21.3738 8.1 21.7605 8.5C22.1472 8.9 22.3405 9.56667 22.3405 10.5V13H16.5205V12.31H18.1705C18.0772 11.7367 18.0305 11.1533 18.0305 10.56C18.0305 10.1133 18.0572 9.67333 18.1105 9.24C18.1638 8.8 18.2238 8.44333 18.2905 8.17C18.4505 8.10333 18.6838 8.04333 18.9905 7.99C19.2972 7.93 19.6205 7.9 19.9605 7.9ZM18.8005 10.56C18.8005 10.8867 18.8138 11.2133 18.8405 11.54C18.8738 11.86 18.9072 12.1167 18.9405 12.31H21.5705V10.49C21.5705 9.81 21.4272 9.32333 21.1405 9.03C20.8538 8.73667 20.4172 8.59 19.8305 8.59C19.5038 8.59 19.2138 8.62333 18.9605 8.69C18.8538 9.27 18.8005 9.89333 18.8005 10.56Z" fill="#219653"/>
</svg>
