<svg width="27" height="69" viewBox="0 0 27 69" fill="none" xmlns="http://www.w3.org/2000/svg">
<path d="M26.2087 39.5095V18.0833H0.791992V39.5095C0.791992 40.3991 1.24949 41.2378 2.03741 41.6953L12.6616 48.0749L10.1453 54.0224L1.47824 54.7595L8.06116 60.4528L6.05324 68.9166L13.5003 64.4178L20.9474 68.9166L18.9649 60.4528L25.5478 54.7595L16.8807 54.0224L14.3645 48.0749L24.9887 41.6953C25.7512 41.2378 26.2087 40.4245 26.2087 39.5095ZM16.042 44.0845L13.5003 45.6095L10.9587 44.0845V20.6249H16.042V44.0845Z" fill="#2F80ED"/>
<path d="M3.89516 7.79C4.62182 7.79 5.22849 8.05333 5.71516 8.58C6.20849 9.1 6.45516 9.95 6.45516 11.13V13H2.43516V12.31H5.68516V11.15C5.68516 10.1633 5.49182 9.47333 5.10516 9.08C4.72516 8.68 4.27849 8.48 3.76516 8.48H2.95516L2.90516 7.91C2.97182 7.88333 3.10516 7.85667 3.30516 7.83C3.51182 7.80333 3.70849 7.79 3.89516 7.79ZM12.627 13H11.377C11.337 13.84 11.1804 14.4633 10.907 14.87C10.6404 15.2767 10.217 15.48 9.63703 15.48C9.33036 15.48 8.82703 15.43 8.12703 15.33V14.65C8.74703 14.7433 9.2337 14.79 9.58703 14.79C9.82036 14.79 10.007 14.7467 10.147 14.66C10.2937 14.58 10.4104 14.41 10.497 14.15C10.5837 13.89 10.627 13.5067 10.627 13H9.15703C8.43036 13 7.94703 12.77 7.70703 12.31C7.4737 11.85 7.35703 11.2533 7.35703 10.52C7.35703 9.9 7.41703 9.39667 7.53703 9.01C7.65703 8.61667 7.8737 8.32 8.18703 8.12C8.50036 7.91333 8.93703 7.81 9.49703 7.81C9.7637 7.81 10.0837 7.83 10.457 7.87C10.837 7.91 11.1504 7.95333 11.397 8V12.31H12.627V13ZM8.12703 10.5C8.12703 11.0333 8.2137 11.47 8.38703 11.81C8.56036 12.1433 8.9137 12.31 9.44703 12.31H10.627V8.57C10.267 8.52333 9.9537 8.5 9.68703 8.5C9.28036 8.5 8.9637 8.57667 8.73703 8.73C8.51036 8.87667 8.35036 9.09667 8.25703 9.39C8.17036 9.67667 8.12703 10.0467 8.12703 10.5ZM18.5509 12.31V13H12.6309V12.31H16.6409V9.6C16.6409 9.26667 16.5542 9.01667 16.3809 8.85C16.2075 8.67667 15.9475 8.59 15.6009 8.59C15.3009 8.59 14.7075 8.64333 13.8209 8.75L13.5409 8.78L13.5109 8.21C14.5175 8.00333 15.2709 7.9 15.7709 7.9C16.8642 7.9 17.4109 8.47 17.4109 9.61V12.31H18.5509ZM15.2109 13.8H15.9709V14.64H15.2109V13.8ZM21.9888 7.9C22.8022 7.9 23.4022 8.1 23.7888 8.5C24.1755 8.9 24.3688 9.56667 24.3688 10.5V13H18.5488V12.31H20.1988C20.1055 11.7367 20.0588 11.1533 20.0588 10.56C20.0588 10.1133 20.0855 9.67333 20.1388 9.24C20.1922 8.8 20.2522 8.44333 20.3188 8.17C20.4788 8.10333 20.7122 8.04333 21.0188 7.99C21.3255 7.93 21.6488 7.9 21.9888 7.9ZM20.8288 10.56C20.8288 10.8867 20.8422 11.2133 20.8688 11.54C20.9022 11.86 20.9355 12.1167 20.9688 12.31H23.5988V10.49C23.5988 9.81 23.4555 9.32333 23.1688 9.03C22.8822 8.73667 22.4455 8.59 21.8588 8.59C21.5322 8.59 21.2422 8.62333 20.9888 8.69C20.8822 9.27 20.8288 9.89333 20.8288 10.56Z" fill="#2F80ED"/>
</svg>
